# xmcd
#
# Track frame offsets:
# 150
# 12383
# 27582
# 45604
# 60581
# 74916
# 87766
# 105647
# 121121
#
# Disc length: 1819 seconds
#
#
# Revision: 0
# Processed by: cddbd v1.5.1PL2 Copyright (c) Steve Scherf et al.
# Submitted via: FreeRIP 2.945 
#
DISCID=77071909
DTITLE=Jason Jones - Compilation
DYEAR=2006
DGENRE=Country
TTITLE0=My Redneck Girl
TTITLE1=The Best I Can
TTITLE2=Bad Road
TTITLE3=Heaven on Wheels
TTITLE4=She's Alright
TTITLE5=Driven
TTITLE6=No Way to Treat a Lady
TTITLE7=Loud and Rowdy
TTITLE8=Too Much Wine
EXTD=
EXTT0=
EXTT1=
EXTT2=
EXTT3=
EXTT4=
EXTT5=
EXTT6=
EXTT7=
EXTT8=
PLAYORDER=
